<?xml version="1.0" encoding="UTF-8" ?>
<!DOCTYPE svg PUBLIC "-//W3C//DTD SVG 1.1//EN" "http://www.w3.org/Graphics/SVG/1.1/DTD/svg11.dtd">
<svg width="600pt" height="600pt" viewBox="0 0 600 600" version="1.1" xmlns="http://www.w3.org/2000/svg">
<g id="#f8f8f8ff">
</g>
<g id="#d6d6d6ff">
</g>
<g id="#ffffffff">
<path fill="#ffffff" opacity="1.00" d=" M 322.45 258.80 C 322.81 258.22 323.53 257.06 323.89 256.48 C 329.94 257.69 336.39 257.95 341.84 261.13 C 348.44 264.90 354.66 269.57 359.40 275.56 C 360.65 276.91 361.67 278.55 363.21 279.61 C 366.64 278.31 369.58 275.97 372.83 274.28 C 374.02 276.22 375.22 278.17 376.59 280.00 C 373.67 284.80 371.88 290.37 372.35 296.03 C 371.80 302.11 375.77 307.14 378.88 311.95 C 376.46 315.00 371.00 317.11 372.72 321.82 C 377.74 322.89 379.45 317.21 383.20 315.32 C 385.98 316.28 388.34 318.19 391.16 319.09 C 392.68 319.77 395.17 320.17 395.32 322.23 C 395.38 326.68 396.86 330.95 396.87 335.40 C 393.68 333.13 390.43 330.93 386.87 329.27 C 385.73 330.59 383.91 331.84 384.32 333.85 C 385.65 338.88 388.37 343.64 388.43 348.96 C 388.52 354.05 388.71 359.14 388.55 364.23 C 386.67 363.29 384.91 362.12 382.95 361.38 C 381.78 361.99 380.69 362.71 379.59 363.41 C 379.30 369.70 380.32 376.16 378.45 382.28 C 377.17 389.47 375.33 396.71 371.54 403.03 C 369.42 402.29 367.74 400.80 366.01 399.45 C 365.37 399.73 364.09 400.28 363.45 400.56 C 364.23 410.40 361.26 419.97 357.83 429.07 C 355.64 435.23 350.69 439.74 345.97 444.00 C 344.71 445.25 342.49 444.61 342.43 442.71 C 341.91 439.87 339.79 436.08 336.35 437.96 C 335.94 442.61 337.77 448.00 342.15 450.20 C 345.15 451.34 347.92 448.94 350.30 447.42 C 355.75 442.72 360.69 437.04 363.12 430.16 C 365.58 423.29 367.63 416.23 368.61 408.99 C 370.83 409.26 373.06 409.43 375.29 409.64 C 375.15 417.47 377.22 425.27 375.86 433.07 C 375.30 439.37 372.97 445.36 369.74 450.76 C 365.59 457.68 361.38 464.91 354.70 469.72 C 348.63 474.06 342.79 478.99 335.71 481.62 C 329.42 483.98 322.77 485.73 316.01 485.56 C 308.52 485.38 300.92 486.17 293.54 484.52 C 279.71 482.03 266.12 475.45 257.48 464.08 C 262.23 461.55 267.92 460.74 272.08 457.17 C 277.49 451.95 281.02 445.04 282.68 437.75 C 284.31 433.59 282.48 428.83 284.67 424.83 C 287.72 426.61 290.28 429.06 293.19 431.02 C 294.66 432.11 296.81 431.74 297.80 430.17 C 297.92 427.93 295.98 426.70 294.50 425.42 C 289.74 421.50 284.45 418.26 279.84 414.16 C 274.97 409.09 271.64 402.81 268.23 396.73 C 267.57 395.46 266.26 394.82 265.02 394.27 C 263.27 394.74 261.87 396.89 259.99 396.41 C 252.57 390.96 247.64 383.02 242.10 375.85 C 241.10 373.93 238.80 374.22 237.01 374.49 C 235.52 376.37 234.46 378.54 233.13 380.54 C 229.13 376.46 226.25 371.48 223.44 366.55 C 221.94 363.92 221.27 360.71 218.88 358.68 C 216.70 357.67 214.96 359.86 213.20 360.80 C 208.92 353.82 206.45 345.91 204.80 337.94 C 204.42 335.11 204.58 332.23 204.76 329.39 C 209.93 335.40 213.75 342.94 221.00 346.83 C 221.97 345.88 222.93 344.92 223.89 343.96 C 222.07 341.83 220.05 339.89 218.07 337.90 C 213.52 333.20 210.63 327.26 206.87 321.97 C 208.13 318.16 212.48 317.17 215.86 316.04 C 225.52 313.83 235.51 313.29 245.40 313.67 C 246.09 308.94 246.77 304.22 247.75 299.55 C 249.12 292.85 252.69 286.92 255.87 280.96 C 259.37 274.02 265.86 269.27 272.32 265.30 C 274.17 263.84 276.42 264.52 278.37 265.37 C 276.67 266.95 274.28 268.83 275.64 271.42 C 280.81 281.18 291.14 290.05 302.86 288.37 C 312.32 286.12 320.55 278.55 322.55 268.89 C 322.87 265.53 322.64 262.16 322.45 258.80 M 336.59 276.36 C 335.44 282.81 334.39 290.68 327.94 294.08 C 320.60 299.03 311.53 297.58 303.22 297.45 C 301.16 297.21 301.33 299.62 300.73 300.95 C 299.90 303.59 298.96 306.95 295.87 307.68 C 285.77 311.09 274.95 305.89 267.75 298.81 C 265.19 296.76 263.27 300.93 264.82 302.88 C 268.58 307.50 274.05 310.26 279.52 312.33 C 284.08 314.32 289.19 313.34 294.02 313.49 C 299.81 313.41 304.31 308.69 305.70 303.31 C 309.81 303.31 313.93 303.57 318.04 303.28 C 326.64 301.59 336.27 297.37 339.22 288.37 C 340.19 284.44 341.98 280.47 341.25 276.36 C 339.69 276.32 338.14 276.32 336.59 276.36 M 327.60 343.79 C 318.73 348.94 307.98 348.05 298.32 346.18 C 298.33 347.82 298.37 349.45 298.43 351.09 C 304.62 353.68 311.47 352.57 317.99 352.59 C 324.63 351.40 331.14 348.69 336.31 344.29 C 336.77 342.86 336.62 341.32 336.74 339.86 C 333.03 338.70 330.61 342.38 327.60 343.79 Z" />
<path fill="#ffffff" opacity="1.00" d=" M 160.39 416.19 C 168.01 414.21 176.34 415.64 182.64 420.46 C 190.79 425.33 195.70 433.82 199.69 442.14 C 203.72 450.51 206.51 459.64 206.37 469.01 C 206.29 474.21 206.88 479.54 205.48 484.63 C 202.76 494.80 195.48 504.52 184.85 507.14 C 177.08 508.41 168.73 507.36 162.03 503.00 C 143.39 491.19 132.59 468.84 133.32 446.99 C 133.01 437.14 138.29 427.93 145.58 421.62 C 149.83 418.24 154.99 416.46 160.39 416.19 Z" />
<path fill="#ffffff" opacity="1.00" d=" M 433.67 419.11 C 437.42 418.37 441.19 417.10 445.06 417.32 C 453.93 419.12 461.64 424.72 467.35 431.59 C 471.86 438.08 474.99 446.04 474.29 454.05 C 472.69 462.03 471.10 470.18 467.45 477.51 C 461.57 488.30 452.78 497.63 441.96 503.55 C 432.30 508.65 420.58 507.01 410.75 503.23 C 405.20 501.66 402.39 496.19 399.27 491.84 C 394.86 481.54 394.46 469.79 396.90 458.94 C 398.32 449.42 403.27 440.72 409.49 433.50 C 413.26 429.02 418.57 426.34 423.64 423.61 C 426.89 421.92 430.11 420.10 433.67 419.11 Z" />
</g>
<g id="#070403ff">
<path fill="#070403" opacity="1.00" d=" M 354.35 71.59 C 361.03 69.40 368.29 70.00 374.96 71.89 C 381.75 74.01 386.97 79.43 390.62 85.36 C 398.62 98.84 402.65 114.45 403.72 130.01 C 403.15 139.66 403.87 149.36 402.86 158.99 C 402.86 172.71 399.04 186.20 393.73 198.77 C 392.57 202.11 389.20 204.86 389.57 208.57 C 391.49 211.66 393.87 214.46 395.49 217.75 C 397.92 222.10 399.11 227.05 401.73 231.31 C 404.65 234.26 407.68 229.72 410.99 230.29 C 415.46 229.67 419.29 232.90 421.71 236.33 C 426.09 242.38 426.66 250.15 426.51 257.38 C 437.07 258.01 447.76 263.91 451.98 273.93 C 454.49 278.92 453.65 284.62 453.72 290.00 C 453.85 295.25 450.70 299.76 448.12 304.07 C 450.14 309.55 451.24 315.28 452.37 320.98 C 452.89 331.89 453.49 343.21 449.27 353.54 C 443.96 366.36 434.74 377.90 422.47 384.65 C 419.21 386.45 415.75 387.83 412.33 389.28 C 412.24 392.57 412.43 395.85 412.51 399.13 C 419.38 403.97 426.60 408.32 434.02 412.28 C 437.26 413.10 440.70 412.27 444.03 412.44 C 448.83 412.14 453.37 414.24 457.56 416.37 C 465.63 421.43 473.20 428.24 476.56 437.41 C 479.87 444.45 478.80 452.46 478.51 459.98 C 476.91 466.80 475.55 473.89 471.98 480.03 C 468.13 485.46 464.98 491.47 460.07 496.08 C 453.18 503.17 444.90 509.84 434.89 511.54 C 427.85 512.00 420.57 512.27 413.81 509.93 C 409.52 508.70 405.73 506.25 401.54 504.80 C 394.53 502.76 387.15 503.63 379.97 502.99 C 372.75 502.56 365.59 501.15 358.34 501.55 C 358.78 501.18 359.23 500.82 359.69 500.46 C 352.83 500.59 346.04 499.51 339.35 498.15 C 332.81 496.30 326.44 499.61 319.95 500.09 C 305.32 501.23 290.60 500.26 275.97 499.77 C 263.21 501.76 250.31 502.78 237.42 503.60 C 226.00 505.26 214.42 504.29 202.93 504.56 C 198.59 504.36 195.95 508.45 192.29 510.07 C 187.56 512.23 182.28 513.62 177.05 513.25 C 168.59 512.10 160.02 509.29 153.60 503.44 C 149.13 499.60 145.20 495.18 141.56 490.55 C 137.27 485.66 134.81 479.54 132.40 473.58 C 128.55 463.55 127.69 452.63 128.54 441.99 C 129.12 434.19 132.96 426.93 138.41 421.43 C 143.46 415.93 150.26 411.41 157.89 411.00 C 161.60 410.53 165.26 409.35 169.04 409.66 C 171.34 409.86 173.54 410.78 175.87 410.76 C 179.72 409.09 183.92 408.45 187.72 406.65 C 191.10 405.13 194.34 403.32 197.63 401.63 C 197.60 393.68 196.70 385.58 198.49 377.77 C 198.38 371.55 200.08 365.55 200.62 359.39 C 201.12 355.86 203.72 352.42 202.21 348.79 C 200.32 343.36 199.23 337.68 199.19 331.92 C 197.74 330.99 196.12 330.15 195.24 328.60 C 189.11 318.11 185.25 306.08 185.43 293.86 C 183.82 295.50 182.24 297.16 180.64 298.82 C 178.97 298.46 176.53 299.32 175.63 297.43 C 174.07 295.28 174.29 292.52 173.86 290.03 C 173.18 281.23 172.19 272.17 174.68 263.56 C 164.83 256.48 156.00 248.07 147.53 239.42 C 137.69 228.98 131.80 215.70 126.06 202.75 C 121.90 190.51 117.19 178.08 117.14 164.99 C 115.82 157.51 115.93 149.46 119.55 142.60 C 122.85 134.48 130.10 129.07 137.16 124.38 C 145.15 120.30 154.51 123.14 162.32 126.27 C 170.52 129.08 176.70 135.40 183.36 140.66 C 193.49 149.48 203.41 158.62 212.12 168.88 C 216.15 173.06 219.67 177.73 224.04 181.57 C 225.52 181.66 226.28 180.06 227.39 179.33 C 231.58 175.14 237.24 173.06 242.49 170.54 C 248.15 168.08 253.73 164.99 259.98 164.38 C 265.90 163.08 272.00 162.96 277.94 161.75 C 285.44 161.40 292.95 161.56 300.45 161.67 C 302.18 150.83 306.72 140.73 310.13 130.36 C 312.97 121.37 316.45 112.53 321.20 104.36 C 325.17 97.20 330.49 90.93 335.57 84.55 C 340.87 79.06 347.07 74.14 354.35 71.59 M 333.06 96.17 C 324.08 107.25 318.66 120.68 314.34 134.14 C 312.15 141.88 308.42 149.12 306.78 157.02 C 306.09 160.45 306.71 164.01 305.88 167.41 C 301.35 167.29 296.79 167.76 292.32 166.74 C 290.32 165.89 288.15 165.58 286.02 166.02 C 279.38 167.10 272.61 166.99 265.99 168.17 C 258.90 168.87 251.57 170.51 245.87 175.03 C 238.97 177.65 231.55 180.78 227.35 187.21 C 226.50 188.09 225.66 190.27 224.10 189.38 C 216.65 181.97 209.77 173.99 202.80 166.13 C 195.82 158.48 188.04 151.62 180.21 144.86 C 173.55 139.66 167.47 133.28 159.23 130.62 C 153.37 127.85 146.71 127.81 140.41 128.55 C 135.65 131.54 131.21 135.21 127.54 139.49 C 123.68 144.80 121.06 151.36 121.53 158.01 C 121.71 164.30 123.10 170.49 123.63 176.76 C 126.62 189.33 130.64 201.75 136.67 213.22 C 141.61 224.49 149.28 234.39 158.12 242.88 C 165.27 249.33 172.43 255.85 180.58 261.03 C 181.15 265.21 177.97 268.78 178.41 272.96 C 178.61 279.02 177.89 285.20 179.37 291.14 C 182.31 289.01 185.04 284.78 189.22 286.71 C 190.82 289.54 190.17 292.89 190.50 295.99 C 191.39 304.11 192.54 312.50 196.78 319.64 C 198.65 318.28 200.33 315.71 202.99 316.44 C 205.12 317.78 205.80 320.32 206.61 322.53 L 206.87 321.97 C 210.63 327.26 213.52 333.20 218.07 337.90 C 220.05 339.89 222.07 341.83 223.89 343.96 C 222.93 344.92 221.97 345.88 221.00 346.83 C 213.75 342.94 209.93 335.40 204.76 329.39 C 204.58 332.23 204.42 335.11 204.80 337.94 C 206.45 345.91 208.92 353.82 213.20 360.80 C 214.96 359.86 216.70 357.67 218.88 358.68 C 221.27 360.71 221.94 363.92 223.44 366.55 C 226.25 371.48 229.13 376.46 233.13 380.54 C 234.46 378.54 235.52 376.37 237.01 374.49 C 238.80 374.22 241.10 373.93 242.10 375.85 C 247.64 383.02 252.57 390.96 259.99 396.41 C 261.87 396.89 263.27 394.74 265.02 394.27 C 266.26 394.82 267.57 395.46 268.23 396.73 C 271.64 402.81 274.97 409.09 279.84 414.16 C 284.45 418.26 289.74 421.50 294.50 425.42 C 295.98 426.70 297.92 427.93 297.80 430.17 C 296.81 431.74 294.66 432.11 293.19 431.02 C 290.28 429.06 287.72 426.61 284.67 424.83 C 282.48 428.83 284.31 433.59 282.68 437.75 C 281.02 445.04 277.49 451.95 272.08 457.17 C 267.24 458.97 262.24 460.38 257.63 462.75 C 251.36 466.18 243.94 465.51 237.09 464.94 C 232.08 463.17 226.83 461.65 222.53 458.43 C 216.75 453.82 211.86 448.04 208.71 441.33 C 204.05 430.36 201.43 418.70 198.59 407.18 C 193.68 409.72 188.62 411.94 183.68 414.41 C 186.65 417.47 190.77 419.19 193.46 422.56 C 197.31 427.20 200.84 432.16 203.42 437.63 C 206.79 444.69 210.04 452.02 210.84 459.89 C 212.12 466.81 211.86 473.90 211.55 480.89 C 211.13 487.69 207.42 493.49 204.88 499.61 C 216.49 500.29 228.02 498.63 239.60 498.35 C 245.94 496.84 252.51 497.84 258.89 496.74 C 263.69 496.18 268.51 495.62 273.13 494.17 C 280.09 494.48 287.11 494.17 293.99 495.46 C 305.08 495.61 316.43 496.43 327.20 493.18 C 329.67 492.38 332.12 490.71 334.82 491.64 C 346.31 494.79 358.26 495.09 369.95 497.10 C 376.38 497.80 382.93 496.86 389.32 498.06 C 391.64 498.49 394.01 498.52 396.37 498.56 C 392.51 490.20 390.33 481.18 389.75 472.01 C 389.94 468.28 390.80 464.63 391.27 460.94 C 392.80 447.48 399.95 434.97 409.90 425.92 C 415.11 421.01 422.27 419.22 427.96 415.06 C 423.03 411.90 417.90 409.06 412.92 405.98 C 410.96 404.76 408.90 403.50 407.61 401.54 C 407.11 398.53 407.33 395.46 407.13 392.44 C 405.38 392.51 403.62 392.68 401.87 392.58 C 400.33 391.54 400.85 390.00 401.34 388.56 C 409.29 384.24 418.37 382.12 425.58 376.48 C 433.12 371.36 438.09 363.50 442.58 355.77 C 449.66 341.21 448.76 324.21 444.37 309.00 C 439.34 309.81 435.34 314.46 429.99 313.37 C 428.70 312.56 428.19 311.40 428.46 309.91 C 431.68 308.12 435.35 307.32 438.53 305.45 C 443.61 302.76 446.66 297.39 448.13 292.02 C 449.29 284.66 448.97 276.20 443.53 270.49 C 438.52 264.37 430.10 262.47 422.54 263.55 C 421.36 259.84 421.73 255.94 421.49 252.13 C 420.75 246.89 419.76 241.13 415.59 237.44 C 413.94 235.30 410.59 234.75 408.52 236.58 C 404.86 239.57 403.69 244.53 402.85 248.97 C 402.73 254.51 405.10 259.70 405.69 265.14 C 403.68 268.21 401.09 265.17 399.81 263.20 C 396.61 258.49 392.57 254.38 387.76 251.31 C 382.86 247.27 375.68 251.95 373.72 257.03 C 373.13 261.96 374.89 266.83 376.95 271.22 C 378.31 274.20 381.22 275.93 383.65 277.95 C 380.67 283.58 376.94 289.34 377.58 296.04 C 377.52 304.24 384.42 310.19 391.19 313.54 C 393.74 314.91 397.10 314.68 399.19 316.84 C 400.74 321.82 400.72 327.16 402.16 332.19 C 403.16 336.13 405.15 339.96 404.70 344.14 C 403.66 345.89 401.71 345.72 399.99 345.34 C 396.88 343.25 394.27 340.52 391.40 338.12 C 392.99 344.29 394.54 350.58 394.29 357.01 C 394.10 361.98 395.00 367.28 392.92 371.97 C 390.94 375.04 387.47 372.58 385.58 370.80 C 383.66 382.75 382.38 395.33 375.96 405.89 C 374.50 409.04 370.60 408.35 367.80 408.89 L 368.61 408.99 C 367.63 416.23 365.58 423.29 363.12 430.16 C 360.69 437.04 355.75 442.72 350.30 447.42 C 347.92 448.94 345.15 451.34 342.15 450.20 C 337.77 448.00 335.94 442.61 336.35 437.96 C 339.79 436.08 341.91 439.87 342.43 442.71 C 342.49 444.61 344.71 445.25 345.97 444.00 C 350.69 439.74 355.64 435.23 357.83 429.07 C 361.26 419.97 364.23 410.40 363.45 400.56 C 364.09 400.28 365.37 399.73 366.01 399.45 C 367.74 400.80 369.42 402.29 371.54 403.03 C 375.33 396.71 377.17 389.47 378.45 382.28 C 380.32 376.16 379.30 369.70 379.59 363.41 C 380.69 362.71 381.78 361.99 382.95 361.38 C 384.91 362.12 386.67 363.29 388.55 364.23 C 388.71 359.14 388.52 354.05 388.43 348.96 C 388.37 343.64 385.65 338.88 384.32 333.85 C 383.91 331.84 385.73 330.59 386.87 329.27 C 390.43 330.93 393.68 333.13 396.87 335.40 C 396.86 330.95 395.38 326.68 395.32 322.23 C 395.17 320.17 392.68 319.77 391.16 319.09 C 388.34 318.19 385.98 316.28 383.20 315.32 C 379.45 317.21 377.74 322.89 372.72 321.82 C 371.00 317.11 376.46 315.00 378.88 311.95 C 375.77 307.14 371.80 302.11 372.35 296.03 C 371.88 290.37 373.67 284.80 376.59 280.00 C 375.22 278.17 374.02 276.22 372.83 274.28 C 369.37 267.80 366.61 259.72 369.75 252.60 C 373.14 247.29 379.70 244.00 385.98 244.71 C 390.05 245.99 393.10 249.21 396.83 251.18 C 397.30 248.30 397.42 245.27 396.25 242.54 C 394.35 239.77 391.19 238.29 388.50 236.44 C 388.48 235.17 388.50 233.89 388.56 232.62 C 390.61 232.40 392.71 232.39 394.72 231.88 C 394.64 226.21 391.07 221.32 388.63 216.41 C 387.55 213.79 385.03 212.64 382.40 212.19 C 381.75 207.54 385.09 203.98 387.08 200.14 C 391.74 191.62 394.41 182.18 396.42 172.73 C 397.73 166.57 397.06 160.21 398.31 154.04 C 398.55 145.02 398.50 135.97 398.41 126.95 C 397.11 118.25 395.24 109.58 392.49 101.22 C 389.56 94.35 386.66 87.11 381.10 81.90 C 375.74 75.78 366.74 74.90 359.13 75.76 C 347.88 78.34 339.77 87.35 333.06 96.17 M 206.31 359.98 C 205.16 363.89 204.49 367.91 204.41 371.99 C 202.65 381.90 203.26 392.04 203.47 402.05 C 204.97 410.39 206.20 418.89 209.24 426.86 C 210.95 431.44 211.98 436.29 214.30 440.63 C 216.83 445.79 220.65 450.24 225.12 453.83 C 230.42 458.13 237.41 459.34 243.96 460.39 C 249.17 460.18 254.44 459.26 259.14 456.88 C 263.03 454.92 268.06 454.67 270.85 450.94 C 277.77 442.43 279.30 430.98 278.70 420.35 C 273.81 416.41 270.83 410.84 267.09 405.94 C 263.24 404.25 259.24 402.71 255.99 399.95 C 250.01 394.74 244.81 388.71 240.05 382.39 C 238.65 384.42 237.58 388.90 234.26 387.20 C 226.54 383.16 222.26 375.16 218.19 367.83 C 216.14 367.28 213.99 366.92 212.09 365.94 C 209.71 364.46 208.11 362.08 206.31 359.98 M 160.39 416.19 C 154.99 416.46 149.83 418.24 145.58 421.62 C 138.29 427.93 133.01 437.14 133.32 446.99 C 132.59 468.84 143.39 491.19 162.03 503.00 C 168.73 507.36 177.08 508.41 184.85 507.14 C 195.48 504.52 202.76 494.80 205.48 484.63 C 206.88 479.54 206.29 474.21 206.37 469.01 C 206.51 459.64 203.72 450.51 199.69 442.14 C 195.70 433.82 190.79 425.33 182.64 420.46 C 176.34 415.64 168.01 414.21 160.39 416.19 M 433.67 419.11 C 430.11 420.10 426.89 421.92 423.64 423.61 C 418.57 426.34 413.26 429.02 409.49 433.50 C 403.27 440.72 398.32 449.42 396.90 458.94 C 394.46 469.79 394.86 481.54 399.27 491.84 C 402.39 496.19 405.20 501.66 410.75 503.23 C 420.58 507.01 432.30 508.65 441.96 503.55 C 452.78 497.63 461.57 488.30 467.45 477.51 C 471.10 470.18 472.69 462.03 474.29 454.05 C 474.99 446.04 471.86 438.08 467.35 431.59 C 461.64 424.72 453.93 419.12 445.06 417.32 C 441.19 417.10 437.42 418.37 433.67 419.11 Z" />
</g>
<g id="#fead4aff">
<path fill="#fead4a" opacity="1.00" d=" M 333.06 96.17 C 339.77 87.35 347.88 78.34 359.13 75.76 C 366.74 74.90 375.74 75.78 381.10 81.90 C 386.66 87.11 389.56 94.35 392.49 101.22 C 395.24 109.58 397.11 118.25 398.41 126.95 C 398.50 135.97 398.55 145.02 398.31 154.04 C 397.06 160.21 397.73 166.57 396.42 172.73 C 394.41 182.18 391.74 191.62 387.08 200.14 C 385.09 203.98 381.75 207.54 382.40 212.19 C 385.03 212.64 387.55 213.79 388.63 216.41 C 391.07 221.32 394.64 226.21 394.72 231.88 C 392.71 232.39 390.61 232.40 388.56 232.62 C 388.50 233.89 388.48 235.17 388.50 236.44 C 391.19 238.29 394.35 239.77 396.25 242.54 C 397.42 245.27 397.30 248.30 396.83 251.18 C 393.10 249.21 390.05 245.99 385.98 244.71 C 379.70 244.00 373.14 247.29 369.75 252.60 C 366.61 259.72 369.37 267.80 372.83 274.28 C 369.58 275.97 366.64 278.31 363.21 279.61 C 361.67 278.55 360.65 276.91 359.40 275.56 C 354.66 269.57 348.44 264.90 341.84 261.13 C 336.39 257.95 329.94 257.69 323.89 256.48 C 323.53 257.06 322.81 258.22 322.45 258.80 C 320.31 255.96 317.40 253.21 313.56 253.47 C 311.20 246.44 307.33 240.04 304.97 233.01 C 302.95 227.21 301.77 221.14 299.61 215.38 C 294.18 200.23 290.79 183.88 292.95 167.77 C 297.25 167.41 301.63 168.31 305.88 167.41 C 306.71 164.01 306.09 160.45 306.78 157.02 C 308.42 149.12 312.15 141.88 314.34 134.14 C 318.66 120.68 324.08 107.25 333.06 96.17 M 348.51 98.53 C 339.21 113.16 331.51 128.84 325.40 145.05 C 326.08 146.12 326.77 147.19 327.45 148.26 C 332.97 147.70 338.02 150.17 343.12 151.83 C 340.15 155.71 335.50 157.80 332.28 161.46 C 330.79 162.65 331.32 165.44 333.27 165.82 C 336.48 166.77 339.92 166.06 343.23 166.44 C 340.93 169.81 337.08 172.03 335.66 175.98 C 335.71 177.42 336.33 178.75 336.71 180.13 C 345.68 181.63 354.69 184.46 361.95 190.11 C 364.41 192.01 366.34 194.49 368.81 196.36 C 370.43 197.03 373.25 197.03 373.62 194.84 C 377.69 184.12 381.16 173.07 382.45 161.64 C 382.44 155.39 383.82 149.25 383.60 142.99 C 383.75 133.01 382.72 123.09 382.26 113.14 C 381.09 107.63 379.97 101.91 376.91 97.09 C 373.40 92.38 368.23 87.92 361.97 88.32 C 355.67 88.08 351.73 93.96 348.51 98.53 M 326.48 234.53 C 322.03 237.98 318.35 244.63 321.79 249.98 C 325.79 249.59 328.51 246.34 332.15 245.02 C 337.83 243.72 343.70 244.84 349.16 246.60 C 351.04 245.87 351.18 243.66 350.10 242.21 C 348.65 240.37 346.18 240.05 344.06 239.54 C 338.99 238.84 333.86 239.39 328.77 239.58 C 332.72 236.36 337.66 234.61 342.74 234.38 C 345.21 234.32 346.97 230.49 344.16 229.36 C 337.89 228.72 331.61 231.06 326.48 234.53 Z" />
<path fill="#fead4a" opacity="1.00" d=" M 408.52 236.58 C 410.59 234.75 413.94 235.30 415.59 237.44 C 419.76 241.13 420.75 246.89 421.49 252.13 C 421.73 255.94 421.36 259.84 422.54 263.55 C 430.10 262.47 438.52 264.37 443.53 270.49 C 448.97 276.20 449.29 284.66 448.13 292.02 C 446.66 297.39 443.61 302.76 438.53 305.45 C 435.35 307.32 431.68 308.12 428.46 309.91 C 428.19 311.40 428.70 312.56 429.99 313.37 C 435.34 314.46 439.34 309.81 444.37 309.00 C 448.76 324.21 449.66 341.21 442.58 355.77 C 438.09 363.50 433.12 371.36 425.58 376.48 C 418.37 382.12 409.29 384.24 401.34 388.56 C 400.85 390.00 400.33 391.54 401.87 392.58 C 403.62 392.68 405.38 392.51 407.13 392.44 C 407.33 395.46 407.11 398.53 407.61 401.54 C 408.90 403.50 410.96 404.76 412.92 405.98 C 417.90 409.06 423.03 411.90 427.96 415.06 C 422.27 419.22 415.11 421.01 409.90 425.92 C 399.95 434.97 392.80 447.48 391.27 460.94 C 390.80 464.63 389.94 468.28 389.75 472.01 C 390.33 481.18 392.51 490.20 396.37 498.56 C 394.01 498.52 391.64 498.49 389.32 498.06 C 382.93 496.86 376.38 497.80 369.95 497.10 C 358.26 495.09 346.31 494.79 334.82 491.64 C 332.12 490.71 329.67 492.38 327.20 493.18 C 316.43 496.43 305.08 495.61 293.99 495.46 C 287.11 494.17 280.09 494.48 273.13 494.17 C 268.51 495.62 263.69 496.18 258.89 496.74 C 252.51 497.84 245.94 496.84 239.60 498.35 C 228.02 498.63 216.49 500.29 204.88 499.61 C 207.42 493.49 211.13 487.69 211.55 480.89 C 211.86 473.90 212.12 466.81 210.84 459.89 C 210.04 452.02 206.79 444.69 203.42 437.63 C 200.84 432.16 197.31 427.20 193.46 422.56 C 190.77 419.19 186.65 417.47 183.68 414.41 C 188.62 411.94 193.68 409.72 198.59 407.18 C 201.43 418.70 204.05 430.36 208.71 441.33 C 211.86 448.04 216.75 453.82 222.53 458.43 C 226.83 461.65 232.08 463.17 237.09 464.94 C 243.80 466.07 250.95 466.25 257.48 464.08 C 266.12 475.45 279.71 482.03 293.54 484.52 C 300.92 486.17 308.52 485.38 316.01 485.56 C 322.77 485.73 329.42 483.98 335.71 481.62 C 342.79 478.99 348.63 474.06 354.70 469.72 C 361.38 464.91 365.59 457.68 369.74 450.76 C 372.97 445.36 375.30 439.37 375.86 433.07 C 377.22 425.27 375.15 417.47 375.29 409.64 C 373.06 409.43 370.83 409.26 368.61 408.99 L 367.80 408.89 C 370.60 408.35 374.50 409.04 375.96 405.89 C 382.38 395.33 383.66 382.75 385.58 370.80 C 387.47 372.58 390.94 375.04 392.92 371.97 C 395.00 367.28 394.10 361.98 394.29 357.01 C 394.54 350.58 392.99 344.29 391.40 338.12 C 394.27 340.52 396.88 343.25 399.99 345.34 C 401.71 345.72 403.66 345.89 404.70 344.14 C 405.15 339.96 403.16 336.13 402.16 332.19 C 400.72 327.16 400.74 321.82 399.19 316.84 C 397.10 314.68 393.74 314.91 391.19 313.54 C 384.42 310.19 377.52 304.24 377.58 296.04 C 376.94 289.34 380.67 283.58 383.65 277.95 C 381.22 275.93 378.31 274.20 376.95 271.22 C 374.89 266.83 373.13 261.96 373.72 257.03 C 375.68 251.95 382.86 247.27 387.76 251.31 C 392.57 254.38 396.61 258.49 399.81 263.20 C 401.09 265.17 403.68 268.21 405.69 265.14 C 405.10 259.70 402.73 254.51 402.85 248.97 C 403.69 244.53 404.86 239.57 408.52 236.58 M 391.38 279.91 C 391.44 281.35 391.84 282.70 392.59 283.96 C 396.54 282.80 400.75 280.27 404.91 282.10 C 408.47 283.50 412.28 286.74 411.69 290.96 C 412.32 294.47 408.81 296.48 405.96 297.30 C 400.45 297.46 395.93 293.38 390.49 293.27 C 390.14 294.41 389.78 295.55 389.42 296.69 C 394.14 300.28 400.08 302.23 406.03 301.78 C 413.83 302.73 420.20 292.70 416.18 285.98 C 414.47 281.49 410.65 277.87 405.86 276.97 C 400.97 276.26 395.10 276.06 391.38 279.91 Z" />
</g>
<g id="#080302ff">
<path fill="#080302" opacity="1.00" d=" M 348.51 98.53 C 351.73 93.96 355.67 88.08 361.97 88.32 C 368.23 87.92 373.40 92.38 376.91 97.09 C 379.97 101.91 381.09 107.63 382.26 113.14 C 382.72 123.09 383.75 133.01 383.60 142.99 C 383.82 149.25 382.44 155.39 382.45 161.64 C 381.16 173.07 377.69 184.12 373.62 194.84 C 373.25 197.03 370.43 197.03 368.81 196.36 C 366.34 194.49 364.41 192.01 361.95 190.11 C 354.69 184.46 345.68 181.63 336.71 180.13 C 336.33 178.75 335.71 177.42 335.66 175.98 C 337.08 172.03 340.93 169.81 343.23 166.44 C 339.92 166.06 336.48 166.77 333.27 165.82 C 331.32 165.44 330.79 162.65 332.28 161.46 C 335.50 157.80 340.15 155.71 343.12 151.83 C 338.02 150.17 332.97 147.70 327.45 148.26 C 326.77 147.19 326.08 146.12 325.40 145.05 C 331.51 128.84 339.21 113.16 348.51 98.53 M 356.04 97.01 C 350.38 104.38 346.03 112.64 341.74 120.86 C 338.29 127.92 334.65 134.95 332.17 142.43 C 337.61 145.31 345.50 145.01 348.71 150.99 C 349.90 155.67 344.72 157.57 341.99 160.20 C 344.45 161.66 347.43 162.42 349.43 164.56 C 350.81 169.60 345.24 172.03 342.56 175.27 C 348.02 178.21 354.44 178.85 359.64 182.33 C 363.33 184.38 366.28 187.65 370.28 189.14 C 371.81 184.03 373.72 179.04 374.90 173.83 C 377.82 162.13 378.39 150.00 378.27 137.99 C 377.21 126.28 378.70 113.99 373.96 102.90 C 372.44 98.24 368.22 95.02 363.74 93.44 C 360.66 92.70 357.88 94.77 356.04 97.01 Z" />
</g>
<g id="#ffd3d4ff">
<path fill="#ffd3d4" opacity="1.00" d=" M 356.04 97.01 C 357.88 94.77 360.66 92.70 363.74 93.44 C 368.22 95.02 372.44 98.24 373.96 102.90 C 378.70 113.99 377.21 126.28 378.27 137.99 C 378.39 150.00 377.82 162.13 374.90 173.83 C 373.72 179.04 371.81 184.03 370.28 189.14 C 366.28 187.65 363.33 184.38 359.64 182.33 C 354.44 178.85 348.02 178.21 342.56 175.27 C 345.24 172.03 350.81 169.60 349.43 164.56 C 347.43 162.42 344.45 161.66 341.99 160.20 C 344.72 157.57 349.90 155.67 348.71 150.99 C 345.50 145.01 337.61 145.31 332.17 142.43 C 334.65 134.95 338.29 127.92 341.74 120.86 C 346.03 112.64 350.38 104.38 356.04 97.01 Z" />
</g>
<g id="#ffad4aff">
<path fill="#ffad4a" opacity="1.00" d=" M 140.41 128.55 C 146.71 127.81 153.37 127.85 159.23 130.62 C 167.47 133.28 173.55 139.66 180.21 144.86 C 188.04 151.62 195.82 158.48 202.80 166.13 C 209.77 173.99 216.65 181.97 224.10 189.38 C 225.66 190.27 226.50 188.09 227.35 187.21 C 231.55 180.78 238.97 177.65 245.87 175.03 C 246.76 174.73 247.65 174.42 248.54 174.11 C 251.60 179.38 255.64 184.00 258.58 189.33 C 266.29 203.10 271.72 217.96 277.20 232.71 C 279.58 239.93 281.56 247.40 281.84 255.04 C 281.96 257.17 282.48 259.26 283.25 261.25 C 281.54 262.52 279.92 263.91 278.37 265.37 C 276.42 264.52 274.17 263.84 272.32 265.30 C 265.86 269.27 259.37 274.02 255.87 280.96 C 252.69 286.92 249.12 292.85 247.75 299.55 C 246.77 304.22 246.09 308.94 245.40 313.67 C 235.51 313.29 225.52 313.83 215.86 316.04 C 212.48 317.17 208.13 318.16 206.87 321.97 L 206.61 322.53 C 205.80 320.32 205.12 317.78 202.99 316.44 C 200.33 315.71 198.65 318.28 196.78 319.64 C 192.54 312.50 191.39 304.11 190.50 295.99 C 190.17 292.89 190.82 289.54 189.22 286.71 C 185.04 284.78 182.31 289.01 179.37 291.14 C 177.89 285.20 178.61 279.02 178.41 272.96 C 177.97 268.78 181.15 265.21 180.58 261.03 C 172.43 255.85 165.27 249.33 158.12 242.88 C 149.28 234.39 141.61 224.49 136.67 213.22 C 130.64 201.75 126.62 189.33 123.63 176.76 C 123.10 170.49 121.71 164.30 121.53 158.01 C 121.06 151.36 123.68 144.80 127.54 139.49 C 131.21 135.21 135.65 131.54 140.41 128.55 M 132.33 154.97 C 132.07 160.91 132.14 166.93 133.46 172.76 C 136.94 188.07 144.89 201.78 153.03 215.01 C 157.07 220.85 161.55 226.38 166.21 231.73 C 170.39 236.32 174.03 241.55 179.32 244.97 C 180.59 246.00 182.38 245.72 183.84 245.32 C 185.42 242.71 185.46 239.49 186.85 236.79 C 188.42 233.73 190.07 230.70 191.76 227.70 C 195.19 221.65 201.00 217.56 205.51 212.42 C 205.88 211.12 206.17 209.07 204.54 208.52 C 202.12 207.26 199.52 206.40 197.02 205.34 C 198.66 202.81 202.87 200.58 201.24 197.15 C 198.45 193.99 193.98 193.39 190.39 191.47 C 190.43 191.20 190.51 190.64 190.55 190.37 C 193.40 188.22 197.11 187.25 199.50 184.50 C 199.88 182.54 199.75 180.25 197.94 179.04 C 188.07 170.60 178.92 161.35 168.80 153.19 C 162.74 148.18 155.34 145.07 147.86 142.87 C 140.34 140.73 132.40 147.39 132.33 154.97 M 249.32 248.04 C 246.39 248.82 243.21 249.76 241.63 252.60 C 237.73 258.30 238.73 268.72 246.34 270.74 C 250.56 271.69 255.60 271.94 259.27 269.24 C 260.88 267.10 263.13 264.94 262.81 262.02 C 263.21 257.60 262.55 252.32 258.40 249.81 C 255.50 248.87 252.41 247.00 249.32 248.04 Z" />
<path fill="#ffad4a" opacity="1.00" d=" M 206.31 359.98 C 208.11 362.08 209.71 364.46 212.09 365.94 C 213.99 366.92 216.14 367.28 218.19 367.83 C 222.26 375.16 226.54 383.16 234.26 387.20 C 237.58 388.90 238.65 384.42 240.05 382.39 C 244.81 388.71 250.01 394.74 255.99 399.95 C 259.24 402.71 263.24 404.25 267.09 405.94 C 270.83 410.84 273.81 416.41 278.70 420.35 C 279.30 430.98 277.77 442.43 270.85 450.94 C 268.06 454.67 263.03 454.92 259.14 456.88 C 254.44 459.26 249.17 460.18 243.96 460.39 C 237.41 459.34 230.42 458.13 225.12 453.83 C 220.65 450.24 216.83 445.79 214.30 440.63 C 211.98 436.29 210.95 431.44 209.24 426.86 C 206.20 418.89 204.97 410.39 203.47 402.05 C 203.26 392.04 202.65 381.90 204.41 371.99 C 204.49 367.91 205.16 363.89 206.31 359.98 Z" />
</g>
<g id="#090302ff">
<path fill="#090302" opacity="1.00" d=" M 132.33 154.97 C 132.40 147.39 140.34 140.73 147.86 142.87 C 155.34 145.07 162.74 148.18 168.80 153.19 C 178.92 161.35 188.07 170.60 197.94 179.04 C 199.75 180.25 199.88 182.54 199.50 184.50 C 197.11 187.25 193.40 188.22 190.55 190.37 C 190.51 190.64 190.43 191.20 190.39 191.47 C 193.98 193.39 198.45 193.99 201.24 197.15 C 202.87 200.58 198.66 202.81 197.02 205.34 C 199.52 206.40 202.12 207.26 204.54 208.52 C 206.17 209.07 205.88 211.12 205.51 212.42 C 201.00 217.56 195.19 221.65 191.76 227.70 C 190.07 230.70 188.42 233.73 186.85 236.79 C 185.46 239.49 185.42 242.71 183.84 245.32 C 182.38 245.72 180.59 246.00 179.32 244.97 C 174.03 241.55 170.39 236.32 166.21 231.73 C 161.55 226.38 157.07 220.85 153.03 215.01 C 144.89 201.78 136.94 188.07 133.46 172.76 C 132.14 166.93 132.07 160.91 132.33 154.97 M 137.83 153.12 C 137.36 159.77 137.06 166.63 138.95 173.11 C 141.90 184.30 146.75 194.98 153.17 204.61 C 159.09 215.89 167.48 225.59 176.00 234.98 C 177.19 236.37 178.64 237.52 180.43 238.02 C 184.84 228.17 190.37 218.54 198.92 211.72 C 194.84 210.61 189.63 211.11 187.10 207.03 C 189.51 204.11 192.51 201.76 194.94 198.88 C 190.50 197.21 185.95 195.88 181.49 194.28 C 181.41 192.44 181.40 190.59 181.43 188.75 C 185.33 186.97 189.17 185.09 192.99 183.16 C 189.56 177.10 183.23 173.45 178.50 168.49 C 171.55 162.82 165.39 155.93 157.15 152.06 C 152.97 150.20 148.70 147.77 143.95 148.36 C 140.84 147.88 139.23 150.91 137.83 153.12 Z" />
</g>
<g id="#fed3d4ff">
<path fill="#fed3d4" opacity="1.00" d=" M 137.83 153.12 C 139.23 150.91 140.84 147.88 143.95 148.36 C 148.70 147.77 152.97 150.20 157.15 152.06 C 165.39 155.93 171.55 162.82 178.50 168.49 C 183.23 173.45 189.56 177.10 192.99 183.16 C 189.17 185.09 185.33 186.97 181.43 188.75 C 181.40 190.59 181.41 192.44 181.49 194.28 C 185.95 195.88 190.50 197.21 194.94 198.88 C 192.51 201.76 189.51 204.11 187.10 207.03 C 189.63 211.11 194.84 210.61 198.92 211.72 C 190.37 218.54 184.84 228.17 180.43 238.02 C 178.64 237.52 177.19 236.37 176.00 234.98 C 167.48 225.59 159.09 215.89 153.17 204.61 C 146.75 194.98 141.90 184.30 138.95 173.11 C 137.06 166.63 137.36 159.77 137.83 153.12 Z" />
</g>
<g id="#82807dff">
<path fill="#82807d" opacity="1.00" d=" M 265.99 168.17 C 272.61 166.99 279.38 167.10 286.02 166.02 C 288.15 165.58 290.32 165.89 292.32 166.74 C 291.88 166.79 290.99 166.88 290.55 166.93 C 276.46 168.39 261.66 167.95 248.54 174.11 C 247.65 174.42 246.76 174.73 245.87 175.03 C 251.57 170.51 258.90 168.87 265.99 168.17 Z" />
</g>
<g id="#fffffeff">
<path fill="#fffffe" opacity="1.00" d=" M 248.54 174.11 C 261.66 167.95 276.46 168.39 290.55 166.93 C 290.53 183.17 292.51 199.63 298.14 214.95 C 300.49 221.44 301.96 228.21 304.34 234.70 C 306.65 241.12 309.62 247.27 312.55 253.42 C 306.97 253.50 301.16 252.79 295.80 254.76 C 291.24 256.08 287.02 258.39 283.25 261.25 C 282.48 259.26 281.96 257.17 281.84 255.04 C 281.56 247.40 279.58 239.93 277.20 232.71 C 271.72 217.96 266.29 203.10 258.58 189.33 C 255.64 184.00 251.60 179.38 248.54 174.11 Z" />
</g>
<g id="#f1c998ff">
<path fill="#f1c998" opacity="1.00" d=" M 290.55 166.93 C 290.99 166.88 291.88 166.79 292.32 166.74 C 296.79 167.76 301.35 167.29 305.88 167.41 C 301.63 168.31 297.25 167.41 292.95 167.77 C 290.79 183.88 294.18 200.23 299.61 215.38 C 301.77 221.14 302.95 227.21 304.97 233.01 C 307.33 240.04 311.20 246.44 313.56 253.47 L 312.55 253.42 C 309.62 247.27 306.65 241.12 304.34 234.70 C 301.96 228.21 300.49 221.44 298.14 214.95 C 292.51 199.63 290.53 183.17 290.55 166.93 Z" />
</g>
<g id="#0b0400ff">
<path fill="#0b0400" opacity="1.00" d=" M 326.48 234.53 C 331.61 231.06 337.89 228.72 344.16 229.36 C 346.97 230.49 345.21 234.32 342.74 234.38 C 337.66 234.61 332.72 236.36 328.77 239.58 C 333.86 239.39 338.99 238.84 344.06 239.54 C 346.18 240.05 348.65 240.37 350.10 242.21 C 351.18 243.66 351.04 245.87 349.16 246.60 C 343.70 244.84 337.83 243.72 332.15 245.02 C 328.51 246.34 325.79 249.59 321.79 249.98 C 318.35 244.63 322.03 237.98 326.48 234.53 Z" />
</g>
<g id="#040102ff">
<path fill="#040102" opacity="1.00" d=" M 249.32 248.04 C 252.41 247.00 255.50 248.87 258.40 249.81 C 262.55 252.32 263.21 257.60 262.81 262.02 C 263.13 264.94 260.88 267.10 259.27 269.24 C 255.60 271.94 250.56 271.69 246.34 270.74 C 238.73 268.72 237.73 258.30 241.63 252.60 C 243.21 249.76 246.39 248.82 249.32 248.04 M 249.65 252.45 C 249.55 254.18 249.48 255.92 249.45 257.66 C 251.27 258.34 253.29 259.07 255.22 258.28 C 256.89 256.64 256.60 254.41 255.99 252.38 C 253.87 252.28 251.76 252.29 249.65 252.45 Z" />
</g>
<g id="#fafcfbff">
<path fill="#fafcfb" opacity="1.00" d=" M 249.65 252.45 C 251.76 252.29 253.87 252.28 255.99 252.38 C 256.60 254.41 256.89 256.64 255.22 258.28 C 253.29 259.07 251.27 258.34 249.45 257.66 C 249.48 255.92 249.55 254.18 249.65 252.45 Z" />
</g>
<g id="#000000ff">
<path fill="#000000" opacity="1.00" d=" M 295.80 254.76 C 301.16 252.79 306.97 253.50 312.55 253.42 L 313.56 253.47 C 317.40 253.21 320.31 255.96 322.45 258.80 C 322.64 262.16 322.87 265.53 322.55 268.89 C 320.55 278.55 312.32 286.12 302.86 288.37 C 291.14 290.05 280.81 281.18 275.64 271.42 C 274.28 268.83 276.67 266.95 278.37 265.37 C 279.92 263.91 281.54 262.52 283.25 261.25 C 287.02 258.39 291.24 256.08 295.80 254.76 Z" />
</g>
<g id="#050505ff">
<path fill="#050505" opacity="1.00" d=" M 336.59 276.36 C 338.14 276.32 339.69 276.32 341.25 276.36 C 341.98 280.47 340.19 284.44 339.22 288.37 C 336.27 297.37 326.64 301.59 318.04 303.28 C 313.93 303.57 309.81 303.31 305.70 303.31 C 304.31 308.69 299.81 313.41 294.02 313.49 C 289.19 313.34 284.08 314.32 279.52 312.33 C 274.05 310.26 268.58 307.50 264.82 302.88 C 263.27 300.93 265.19 296.76 267.75 298.81 C 274.95 305.89 285.77 311.09 295.87 307.68 C 298.96 306.95 299.90 303.59 300.73 300.95 C 301.33 299.62 301.16 297.21 303.22 297.45 C 311.53 297.58 320.60 299.03 327.94 294.08 C 334.39 290.68 335.44 282.81 336.59 276.36 Z" />
<path fill="#050505" opacity="1.00" d=" M 327.60 343.79 C 330.61 342.38 333.03 338.70 336.74 339.86 C 336.62 341.32 336.77 342.86 336.31 344.29 C 331.14 348.69 324.63 351.40 317.99 352.59 C 311.47 352.57 304.62 353.68 298.43 351.09 C 298.37 349.45 298.33 347.82 298.32 346.18 C 307.98 348.05 318.73 348.94 327.60 343.79 Z" />
</g>
<g id="#0b0300ff">
<path fill="#0b0300" opacity="1.00" d=" M 391.38 279.91 C 395.10 276.06 400.97 276.26 405.86 276.97 C 410.65 277.87 414.47 281.49 416.18 285.98 C 420.20 292.70 413.83 302.73 406.03 301.78 C 400.08 302.23 394.14 300.28 389.42 296.69 C 389.78 295.55 390.14 294.41 390.49 293.27 C 395.93 293.38 400.45 297.46 405.96 297.30 C 408.81 296.48 412.32 294.47 411.69 290.96 C 412.28 286.74 408.47 283.50 404.91 282.10 C 400.75 280.27 396.54 282.80 392.59 283.96 C 391.84 282.70 391.44 281.35 391.38 279.91 Z" />
</g>
<g id="#999999ff">
<path fill="#999999" opacity="1.00" d=" M 257.63 462.75 C 262.24 460.38 267.24 458.97 272.08 457.17 C 267.92 460.74 262.23 461.55 257.48 464.08 C 250.95 466.25 243.80 466.07 237.09 464.94 C 243.94 465.51 251.36 466.18 257.63 462.75 Z" />
<path fill="#999999" opacity="1.00" d=" M 460.07 496.08 C 464.98 491.47 468.13 485.46 471.98 480.03 C 471.22 482.75 470.01 485.31 468.81 487.85 C 473.29 489.27 479.30 489.57 481.62 494.36 C 483.97 498.24 481.01 502.54 478.37 505.37 C 468.58 515.18 454.62 518.80 441.38 521.18 C 432.92 522.18 424.55 523.95 416.05 524.59 C 411.89 524.74 407.74 525.10 403.64 525.84 C 397.02 527.07 390.24 525.79 383.61 526.91 C 380.12 527.52 376.57 527.72 373.04 527.68 C 336.34 527.63 299.64 527.90 262.94 527.65 C 258.94 527.59 255.06 526.33 251.05 526.40 C 245.78 526.36 240.46 526.70 235.28 525.56 C 229.19 524.32 222.92 525.08 216.82 523.97 C 212.10 523.19 207.26 523.94 202.56 523.03 C 192.73 521.09 182.63 521.05 172.79 519.21 C 167.21 518.19 161.52 517.69 156.09 515.99 C 148.21 513.58 139.85 511.83 133.07 506.85 C 130.20 504.84 128.02 501.65 127.71 498.11 C 130.37 492.97 136.58 492.11 141.56 490.55 C 145.20 495.18 149.13 499.60 153.60 503.44 C 160.02 509.29 168.59 512.10 177.05 513.25 C 182.28 513.62 187.56 512.23 192.29 510.07 C 195.95 508.45 198.59 504.36 202.93 504.56 C 214.42 504.29 226.00 505.26 237.42 503.60 C 250.31 502.78 263.21 501.76 275.97 499.77 C 290.60 500.26 305.32 501.23 319.95 500.09 C 326.44 499.61 332.81 496.30 339.35 498.15 C 346.04 499.51 352.83 500.59 359.69 500.46 C 359.23 500.82 358.78 501.18 358.34 501.55 C 365.59 501.15 372.75 502.56 379.97 502.99 C 387.15 503.63 394.53 502.76 401.54 504.80 C 405.73 506.25 409.52 508.70 413.81 509.93 C 420.57 512.27 427.85 512.00 434.89 511.54 C 444.90 509.84 453.18 503.17 460.07 496.08 Z" />
</g>
</svg>
